<svg xmlns="http://www.w3.org/2000/svg" viewBox="0 0 34.1 33.675">
  <defs>
    <style>
      .cls-1 {
        fill: #fff;
      }
    </style>
  </defs>
  <g id="libras" transform="translate(0 -0.025)">
    <g id="Group_5" data-name="Group 5">
      <g id="Group_4" data-name="Group 4">
        <g id="Group_3" data-name="Group 3">
          <g id="Group_1" data-name="Group 1">
            <path id="Path_1" data-name="Path 1" class="cls-1" d="M.3,5.7A.265.265,0,0,1,0,5.4C0,3.4,3,1,6.6,1h3.7a.265.265,0,0,1,.3.3.265.265,0,0,1-.3.3H6.6c-3.4,0-6,2.3-6,3.8a.265.265,0,0,1-.3.3Z"/>
          </g>
          <g id="Group_2" data-name="Group 2">
            <path id="Path_2" data-name="Path 2" class="cls-1" d="M33.8,5.7a.265.265,0,0,1-.3-.3c0-1.5-2.6-3.8-6-3.8H23.8a.265.265,0,0,1-.3-.3.265.265,0,0,1,.3-.3h3.7c3.5,0,6.6,2.4,6.6,4.4a.265.265,0,0,1-.3.3Z"/>
          </g>
        </g>
      </g>
    </g>
    <g id="Group_12" data-name="Group 12">
      <path id="Path_3" data-name="Path 3" class="cls-1" d="M16.7,22.5a5.938,5.938,0,0,0,.4-.8,9.735,9.735,0,0,1-1.6.1,3.233,3.233,0,0,1-1.6-.3h-.1a2.877,2.877,0,0,1-1.4-1.2,1.287,1.287,0,0,1,.1-1.2c.4-.8,1.3-.8,1.8-.9h.3l.3-.1h.2a18.405,18.405,0,0,0,1.8-.6,58.76,58.76,0,0,1,.4-7,.661.661,0,0,0-.6-.7h-.2c-.3,0-.5.1-.6.5-.1.5-.9,4.4-1,5.4-.1.4-.2.6-.4.6s-.4-.3-.4-.6c-.1-.6-.9-5.7-1-6a1.014,1.014,0,0,0-.7-.6h0c-.2,0-.7.3-.7.7.2,1.3.4,5.4.5,6.1,0,.3-.1.5-.2.5s-.2-.1-.4-.3c-.2-.4-2.2-4.3-2.6-4.9a.55.55,0,0,0-.5-.3,1.034,1.034,0,0,0-.4.1s-.6.1-.2,1c.3.7,1.6,3.5,2.1,4.8.3.7.1.9-.1.9a.864.864,0,0,1-.6-.3c-.3-.3-2.1-2.6-2.7-3.2-.1-.2-.3-.2-.5-.2-.4,0-.7.4-.5.7a21,21,0,0,0,1.9,3.1A6.812,6.812,0,0,1,9,20.6a20.732,20.732,0,0,0,.9,3.8,2.63,2.63,0,0,0,1.8,1.9,6.151,6.151,0,0,1,1.3-.1h.7c1.5-2,2.4-3.2,2.6-3.6Z"/>
      <path id="Path_4" data-name="Path 4" class="cls-1" d="M26.6,18.7c-1.9-.9-2.4-1.9-2.9-2.1a3.6,3.6,0,0,0-1.1-.2,1.949,1.949,0,0,0-.8.1A26.35,26.35,0,0,0,18,18.1a11.682,11.682,0,0,1-2.6,1l-.4.1c-.4.1-1.2,0-1.4.3s.3.7.7.8a2.233,2.233,0,0,0,1.2.2,8.636,8.636,0,0,0,1.5-.1h.3c1.7,0,.8,1.6.3,2.7-.6,1.1-4.1,5.5-4.3,5.9a.633.633,0,0,0,.1.9.764.764,0,0,0,.5.2,1.689,1.689,0,0,0,.5-.2c.3-.4,3.2-3.2,3.8-3.9a.914.914,0,0,1,.5-.3c.3,0,.3.4.1.8-.3.6-2.4,5.2-2.5,5.5a1.008,1.008,0,0,0,.3.9c.1.1.2.1.4.1a.713.713,0,0,0,.6-.3c.6-1.2,2.6-4.7,3-5.3a.747.747,0,0,1,.3-.3c.1,0,.2.2.2.5,0,.4-.6,4.8-.6,5.5a.547.547,0,0,0,.6.6h.1c.2,0,.4-.1.6-.8s.6-3.8.9-5.2c.1-.6.3-.7.4-.7.2,0,.4.4.5.6.1.4.3,3.3.5,4.1.1.4.3.5.5.5a.458.458,0,0,0,.5-.4,17.039,17.039,0,0,0,.1-3.6,7.016,7.016,0,0,1,.3-3.1,19.921,19.921,0,0,0,1.3-3.7A2.771,2.771,0,0,0,26.6,18.7Z"/>
      <g id="Group_8" data-name="Group 8">
        <g id="Group_6" data-name="Group 6">
          <path id="Path_5" data-name="Path 5" class="cls-1" d="M27.8,22h-.1c-.1-.1-.2-.2-.1-.3a3.173,3.173,0,0,0,.2-1.3,3.555,3.555,0,0,0-.4-1.6.224.224,0,1,1,.4-.2,3.764,3.764,0,0,1,.5,1.8,4.422,4.422,0,0,1-.2,1.5.367.367,0,0,1-.3.1Z"/>
        </g>
        <g id="Group_7" data-name="Group 7">
          <path id="Path_6" data-name="Path 6" class="cls-1" d="M28.9,22.3h-.1a.367.367,0,0,1-.1-.3,4.242,4.242,0,0,0,.3-1.3,3.476,3.476,0,0,0-.2-1.6.224.224,0,1,1,.4-.2,3.617,3.617,0,0,1,.3,1.8,4.864,4.864,0,0,1-.4,1.5.31.31,0,0,1-.2.1Z"/>
        </g>
      </g>
      <g id="Group_11" data-name="Group 11">
        <g id="Group_9" data-name="Group 9">
          <path id="Path_7" data-name="Path 7" class="cls-1" d="M11.1,27.8h0a3.037,3.037,0,0,1-1.5-1.2,3.693,3.693,0,0,1-.7-1.3c-.1-.2,0-.3.1-.3s.3.1.3.2a3.759,3.759,0,0,0,.6,1.1,2.623,2.623,0,0,0,1.3,1,.192.192,0,0,1,.1.3.215.215,0,0,1-.2.2Z"/>
        </g>
        <g id="Group_10" data-name="Group 10">
          <path id="Path_8" data-name="Path 8" class="cls-1" d="M9.9,28.4H9.8a3.407,3.407,0,0,1-1.3-1.3,4.267,4.267,0,0,1-.6-1.4c0-.1.1-.2.2-.3.1,0,.2.1.3.2a6.748,6.748,0,0,0,.5,1.2A2.449,2.449,0,0,0,10,27.9c.1.1.2.2.1.3a.215.215,0,0,1-.2.2Z"/>
        </g>
      </g>
    </g>
    <path id="Path_9" data-name="Path 9" class="cls-1" d="M11.4.1a.3.3,0,0,0-.4,0L9.8,1.3l7.3,5.5Z"/>
    <path id="Path_10" data-name="Path 10" class="cls-1" d="M22.7.1a.3.3,0,0,1,.4,0l1.2,1.2L17,6.8Z"/>
  </g>
</svg>
